<?xml version="1.0" encoding="UTF-8"?>
<svg id="Layer_1" data-name="Layer 1" xmlns="http://www.w3.org/2000/svg" width="800" height="800" xmlns:xlink="http://www.w3.org/1999/xlink" viewBox="0 0 800 800">
  <defs>
    <linearGradient id="linear-gradient" x1="397.08" y1="688.07" x2="402.98" y2="1244.01" gradientTransform="translate(0 -563.17)" gradientUnits="userSpaceOnUse">
      <stop offset="0" stop-color="#747474"/>
      <stop offset="1" stop-color="#131313"/>
    </linearGradient>
    <linearGradient id="linear-gradient-2" x1="577.89" y1="867.6" x2="231.48" y2="1053.55" gradientTransform="translate(0 -563.17)" gradientUnits="userSpaceOnUse">
      <stop offset="0" stop-color="#ff9b43"/>
      <stop offset="1" stop-color="#f65100"/>
    </linearGradient>
  </defs>
  <g id="Layer_4" data-name="Layer 4">
    <path d="m600.45,121.87l-34.26,9.4-.32-14.02-.32-15.46L399.84,6.19l-201.41,116.32-4.3,2.55L59.01,203.13v393.73l122.85,71.07,51.63,29.8,64.06,36.97,31.07,17.85,25.81,14.98,24.86,14.34,20.71,11.95,174.32-100.7-.32-15.14v-8.92l34.26,4.46,132.73-76.64V203.13l-140.54-81.11v-.16Z" style="fill: url(#linear-gradient); stroke-width: 0px;"/>
    <polygon points="740.83 203.13 740.83 596.71 608.26 673.35 574.16 692.95 400 793.66 400 6.19 565.88 101.95 600.45 121.87 740.83 203.13" style="fill: url(#linear-gradient-2); stroke-width: 0px;"/>
    <polygon points="605.39 527.08 606.99 608.34 572.89 621.57 570.81 509.23 613.04 460.47 570.5 462.54 570.02 432.43 569.06 368.21 494.65 368.21 503.25 354.51 505.48 350.84 556.95 267.03 567.47 249.98 566.67 162.18 601.09 175.89 601.89 259.54 556 333.95 602.84 333.95 604.44 427.49 674.39 426.21 605.39 527.08" style="fill: #fff; stroke-width: 0px;"/>
  </g>
</svg>